/* XPM */
static char *result[] = {
/* columns rows colors chars-per-pixel */
"32 32 158 2 ",
"   c #003F00",
".  c #083A01",
"X  c #0A3B01",
"o  c #034000",
"O  c #074201",
"+  c #0D4401",
"@  c #0E4401",
"#  c #104501",
"$  c #124602",
"%  c #134702",
"&  c #164702",
"*  c #174802",
"=  c #1A4902",
"-  c #1E4F03",
";  c #275604",
":  c #285604",
">  c #2D5B04",
",  c #2E5B04",
"<  c #007100",
"1  c #256703",
"2  c #266703",
"3  c #366305",
"4  c #376405",
"5  c #207E03",
"6  c #217F03",
"7  c #457406",
"8  c #467506",
"9  c #477506",
"0  c #487606",
"q  c #497606",
"w  c #4B7707",
"e  c #4C7707",
"r  c #4D7707",
"t  c #4C7807",
"y  c #4D7807",
"u  c #008100",
"i  c #0C8601",
"p  c #008A00",
"a  c #008B00",
"s  c #008C00",
"d  c #008D00",
"f  c #138902",
"g  c #168A02",
"h  c #089001",
"j  c #0B9001",
"k  c #0B9101",
"l  c #159402",
"z  c #159502",
"x  c #199602",
"c  c #199702",
"v  c #1A9702",
"b  c #308504",
"n  c #3A8905",
"m  c #3D8A05",
"M  c #3F8B05",
"N  c #209903",
"B  c #229903",
"V  c #229A03",
"C  c #239B03",
"Z  c #2D9E04",
"A  c #2F9F04",
"S  c #30A104",
"D  c #32A004",
"F  c #32A005",
"G  c #3EA506",
"H  c #3FA506",
"J  c #458D06",
"K  c #449D06",
"L  c #4B9F07",
"P  c #619909",
"I  c #689C09",
"U  c #40A506",
"Y  c #42A606",
"T  c #43A606",
"R  c #43A706",
"E  c #45A806",
"W  c #46AA06",
"Q  c #49AA06",
"!  c #4BAA07",
"~  c #4BAB07",
"^  c #4CAA07",
"/  c #4DAA07",
"(  c #4DAB07",
")  c #4EAC07",
"_  c #53AE07",
"`  c #55AD08",
"'  c #54AE08",
"]  c #55AE08",
"[  c #56AF08",
"{  c #57AF08",
"}  c #5FA808",
"|  c #58AF08",
" . c #54B007",
".. c #59B108",
"X. c #5CB108",
"o. c #5DB108",
"O. c #5EB108",
"+. c #5FB308",
"@. c #6AAD09",
"#. c #77A20A",
"$. c #79A30B",
"%. c #7AA30B",
"&. c #7BA40B",
"*. c #60B309",
"=. c #62B309",
"-. c #64B509",
";. c #65B609",
":. c #68B709",
">. c #69B709",
",. c #6AB809",
"<. c #7FB50B",
"1. c #71B90A",
"2. c #79BE0A",
"3. c #79BF0A",
"4. c #7ABF0B",
"5. c #7DBF0B",
"6. c #87B30C",
"7. c #84B70C",
"8. c #8DB50C",
"9. c #8ABA0C",
"0. c #97BF0D",
"q. c #88C30C",
"w. c #89C40C",
"e. c #8AC60C",
"r. c #8CC50C",
"t. c #90C70D",
"y. c #97C40D",
"u. c #98C40D",
"i. c #9AC50E",
"p. c #90C80D",
"a. c #91C80D",
"s. c #96C90D",
"d. c #96CA0D",
"f. c #97CB0D",
"g. c #99CA0E",
"h. c #9ACB0E",
"j. c #9DCC0E",
"k. c #9CCD0E",
"l. c #9DCD0E",
"z. c #9ECD0E",
"x. c #9FCD0E",
"c. c #9ECE0E",
"v. c #A0C70E",
"b. c #A1C80E",
"n. c #A6D00F",
"m. c #A7D00F",
"M. c #A6D10F",
"N. c #AAD10F",
"B. c #A9D30F",
"V. c #AAD20F",
"C. c #ABD20F",
"Z. c #ACD20F",
"A. c #ACD30F",
"S. c #ADD40F",
"D. c #ADD50F",
"F. c #AED50F",
"G. c #AFD50F",
"H. c None",
/* pixels */
"H.H.H.H.H.H.H.H.H.H.H.H.H.H.H.H.H.H.H.H.H.H.H.H.H.H.H.H.H.H.H.H.",
"H.H.H.H.H.H.H.H.H.H.H.H.H.H.H.H.H.H.H.H.H.H.H.H.H.H.H.H.H.H.H.H.",
"H.H.H.H.H.H.H.H.H.H.H.H.H.H.H.H.H.H.H.H.H.H.H.H.H.H.H.H.H.H.H.H.",
"H.H.H.H.H.H.H.H.H.H.H.H.H.H.H.H.H.H.H.H.H.H.H.H.H.H.H.H.H.H.H.H.",
"H.H.H.H.H.H.H.H.H.H.H.H.H.H.H.H.H.H.H.H.H.H.H.H.H.H.H.H.H.H.H.H.",
"H.H.H.H.H.H.H.H.H.H.H.H.H.H.H.H.H.H.H.H.H.H.H.H.H.H.H.H.H.H.H.H.",
"H.H.H.H.H.H.- 7 8 0 w w w q 7 8 9 9 9 9 9 8 8 8 7 - H.H.H.H.H.H.",
"H.H.H.H.H.H.1 ` Y ' m.N.C.1./ U D F F F D H R T / 2 H.H.H.H.H.H.",
"H.H.H.H.H.H.7 x.~ Z M.V.A.*.5.G p a a a p N ) _ r.9 H.H.H.H.H.H.",
"H.H.H.H.H.H.w A._ A n.V.A.=.w.E a s s s a V [ X.h.r H.H.H.H.H.H.",
"H.H.H.H.H.H.w Z._ A n.V.A.=.q.E a s s s a V [ X.g.e H.H.H.H.H.H.",
"H.H.H.H.H.H.w Z._ A n.V.A.=.q.E a s s s a B { o.h.e H.H.H.H.H.H.",
"H.H.H.H.H.H.w Z._ A n.V.A.=.q.E a s s s a B | O.h.e H.H.H.H.H.H.",
"H.H.H.H.H.H.t G. .S B.D.F.-.e.W s d d d d C ..+.k.y H.H.H.H.H.H.",
"H.H.H.H.H.H.3 &.n 6 #.$.%.J P b < < < < < 5 m M I 4 H.H.H.H.H.H.",
"H.H.H.H.H.H.H.X & # O * = & @ % o       o + $ & . H.H.H.H.H.H.H.",
"H.H.H.H.H.H.H.; 8.@.g 7.0.9.L <.f u u u i K } 6.: H.H.H.H.H.H.H.",
"H.H.H.H.H.H.H.> b.4.v f.S.c.[ a.z s d s k ( ,.i., H.H.H.H.H.H.H.",
"H.H.H.H.H.H.H.> v.2.x d.A.l.] t.l a s s j / >.u.> H.H.H.H.H.H.H.",
"H.H.H.H.H.H.H.> v.2.x d.A.l.] t.l a s s j / >.u.> H.H.H.H.H.H.H.",
"H.H.H.H.H.H.H.> v.2.x d.A.l.] t.l a s s j ^ >.u.> H.H.H.H.H.H.H.",
"H.H.H.H.H.H.H.> v.2.x d.A.l.] t.l a s s j ^ :.u.> H.H.H.H.H.H.H.",
"H.H.H.H.H.H.H.> v.2.x d.A.l.] t.l a s s j ! :.u.> H.H.H.H.H.H.H.",
"H.H.H.H.H.H.H.> v.2.x d.A.l.] t.l a s s j ! :.u.> H.H.H.H.H.H.H.",
"H.H.H.H.H.H.H.> v.2.x s.A.j.] t.l a s s j ^ :.u.> H.H.H.H.H.H.H.",
"H.H.H.H.H.H.H.> b.3.c d.S.z.[ p.z s d s h Q ;.y.> H.H.H.H.H.H.H.",
"H.H.H.H.H.H.H.H.H.H.H.H.H.H.H.H.H.H.H.H.H.H.H.H.H.H.H.H.H.H.H.H.",
"H.H.H.H.H.H.H.H.H.H.H.H.H.H.H.H.H.H.H.H.H.H.H.H.H.H.H.H.H.H.H.H.",
"H.H.H.H.H.H.H.H.H.H.H.H.H.H.H.H.H.H.H.H.H.H.H.H.H.H.H.H.H.H.H.H.",
"H.H.H.H.H.H.H.H.H.H.H.H.H.H.H.H.H.H.H.H.H.H.H.H.H.H.H.H.H.H.H.H.",
"H.H.H.H.H.H.H.H.H.H.H.H.H.H.H.H.H.H.H.H.H.H.H.H.H.H.H.H.H.H.H.H.",
"H.H.H.H.H.H.H.H.H.H.H.H.H.H.H.H.H.H.H.H.H.H.H.H.H.H.H.H.H.H.H.H."
};
