/* XPM */
static char *result[] = {
/* columns rows colors chars-per-pixel */
"32 32 70 1 ",
"  c black",
". c #020000",
"X c #050402",
"o c #080402",
"O c #0A0704",
"+ c #0B0704",
"@ c #130D07",
"# c #7E4719",
"$ c #FE0000",
"% c red",
"& c #FF1009",
"* c #FE1C0F",
"= c #804714",
"- c #804615",
"; c #804715",
": c #814516",
"> c #804616",
", c #814616",
"< c #804716",
"1 c #804815",
"2 c #804817",
"3 c #814817",
"4 c #894E1B",
"5 c #8A4F1C",
"6 c #FF5E34",
"7 c #B71E44",
"8 c #B61F44",
"9 c #9F295B",
"0 c #972C62",
"q c #FE7943",
"w c #FAE73D",
"e c #FEEA3A",
"r c #A7A273",
"t c #A7A473",
"y c #FE8147",
"u c #E99B53",
"i c #EA9C54",
"p c #FF9854",
"a c #FF9955",
"s c #F6A65B",
"d c #F7A85D",
"f c #FAA95E",
"g c #FCAB5E",
"h c #FEAB5F",
"j c #FFAB5F",
"k c #FDAC5E",
"l c #FDAC5F",
"z c #FEAC5F",
"x c #FFAC5F",
"c c #E9A26A",
"v c #E9A36A",
"b c #FEAD60",
"n c #FFAD60",
"m c #FFAD61",
"M c #FFAE60",
"N c #3E50B4",
"B c #3E51B4",
"V c #3F51B4",
"C c #3E51B5",
"Z c #3F51B5",
"A c #7A6D9A",
"S c #777E91",
"D c #787E90",
"F c #4C4BA7",
"G c #4C54AC",
"H c #4C57AE",
"J c #434FB1",
"K c #4051B4",
"L c #5E60A6",
"P c None",
/* pixels */
"PPPPPPPPPPPPPPPPPPPPPPPPPPPPPPPP",
"PPPPPPPPPP%%%%%%%%%%PPPPPPPPPPPP",
"PPPPPPPPPP%%%%%%%%%%PPPPPPPPPPPP",
"PPPPPPPP%%%%%%%%%%%%%%%%%%PPPPPP",
"PPPPPPPP%%%%%%%%%%%%%%%%%%PPPPPP",
"PPPPPPPP:,,,,,jxxh.oxjPPPPPPPPPP",
"PPPPPPPP<<<<<<nnnb XnnPPPPPPPPPP",
"PPPPPP;<in4<gnnnnb XnnnnnxPPPPPP",
"PPPPPP;<in4<gnnnnb XnnnnnxPPPPPP",
"PPPPPP;<in4<<<nnnnnf @nnnnnMPPPP",
"PPPPPP<<uz5333nnnnld @llllnmPPPP",
"PPPPPPPP<<snnnnnnb        PPPPPP",
"PPPPPPPP2<snnnnnnb+++O    PPPPPP",
"PPPPPPPPPPnnnnnnnnnnnnPPPPPPPPPP",
"PPPPPPPPPPpacvaaaavcapPPPPPPPPPP",
"PPPPPPPP%%%%JZ%%%%ZJ%%%%PPPPPPPP",
"PPPPPPPP%%%%JZ%%%%ZJ%%%%PPPPPPPP",
"PPPPPP%%%%%%JZ%%%%ZJ%%%%%%PPPPPP",
"PPPPPP%%%%%%JZ8778ZJ%%%%%%PPPPPP",
"PPPP%%%%%%%%JZZZZZZJ%%%%%%%%PPPP",
"PPPP6666&%90rtZZZZtr09%&6666PPPP",
"PPPPMzzz*$FNweVNNVewNF$*zzzMPPPP",
"PPPPkbbbyqGCSDVCBVDSBGqybbbkPPPP",
"PPPPMzzzzzHNNNNNNNNNNHzzzzzMPPPP",
"PPPPkbbbALKCBCBCBCBCBKLAbbbkPPPP",
"PPPPMzzzLNNNNNNNNNNNNNNLzzzMPPPP",
"PPPPPPPPKCBCBCPPPPBCBCBKPPPPPPPP",
"PPPPPPPPVNNNNNPPPPNNNNNVPPPPPPPP",
"PPPPPP->####PPPPPPPP####>-PPPPPP",
"PPPPPP1-----PPPPPPPP------PPPPPP",
"PPPP=-------PPPPPPPP-------=PPPP",
"PPPP>-------PPPPPPPP------->PPPP"
};
